<?xml version="1.0" encoding="UTF-8"?>
<svg width="64px" height="64px" viewBox="0 0 64 64" version="1.1" xmlns="http://www.w3.org/2000/svg" xmlns:xlink="http://www.w3.org/1999/xlink">
    <title>Artboard</title>
    <g id="Artboard" stroke="none" stroke-width="1" fill="none" fill-rule="evenodd" stroke-linecap="round" stroke-linejoin="round">
        <path d="M41.3233198,22.3598501 C42.5177644,22.363308 43.5015635,23.6214292 43.6360121,25.2419763 L43.6477198,25.4305202 C43.7226168,27.6861968 45.2158978,28.4670079 47.4623794,28.7372887 L47.8665006,28.7798819 L48.0741714,28.7975719 L48.5002255,28.8264745 L48.9398861,28.847722 L49.3923409,28.8624923 L50.093235,28.8750789 L50.8183464,28.879716 L51.1171461,28.8794475 C52.0996064,28.8803362 52.9038231,29.639936 52.9749038,30.6033635 L52.9790902,30.7413917 L52.980011,39.9265761 C52.980011,42.0508911 51.2579032,43.7729886 49.1335883,43.7729886 L17.9862793,43.7729886 C14.6691089,43.7729886 11.980011,41.0838907 11.980011,37.7667203 C11.980011,35.2778378 13.4938505,33.1425315 15.6509807,32.2313503 L38.4315098,22.9666903 C39.2690976,22.6355523 40.4739069,22.3606309 41.131433,22.3606309 L41.3233198,22.3598501 Z" id="Path" stroke="#000000" stroke-width="1.5"></path>
        <line x1="34.6881417" y1="24.77" x2="36.1609546" y2="28.03" id="Line" stroke="#000000" stroke-width="1.5"></line>
        <line x1="31.1629098" y1="26.2173451" x2="32.6357228" y2="29.4826549" id="Line" stroke="#000000" stroke-width="1.5"></line>
        <line x1="27.6376779" y1="27.67" x2="29.1104909" y2="30.93" id="Line" stroke="#000000" stroke-width="1.5"></line>
        <path d="M12.08,36.7173127 C12.08,38.2597977 14.7169012,39.5213893 18.0668973,39.5213893 L53.08,39.5213893" id="Oval" stroke="#000000" stroke-width="1.5"></path>
        <line x1="17.5" y1="16.5" x2="19.5" y2="18.5" id="Line-4" stroke="#000000"></line>
        <line x1="17.5" y1="18.5" x2="19.5" y2="16.5" id="Line-5" stroke="#000000"></line>
        <line x1="30.5" y1="49.5" x2="32.5" y2="51.5" id="Line-4" stroke="#000000"></line>
        <line x1="30.5" y1="51.5" x2="32.5" y2="49.5" id="Line-5" stroke="#000000"></line>
        <path d="M6.3,25.5 C6.3,27.0593922 7.25182093,28.3408974 8.46886398,28.4862668 L8.7,28.5 C7.3745166,28.5 6.3,29.8431458 6.3,31.5 C6.3,29.8431458 5.2254834,28.5 3.9,28.5 C5.14751379,28.5 6.17271789,27.3102238 6.28901348,25.78892 L6.3,25.5 Z" id="Path" stroke="#000000"></path>
        <path d="M49.3,49.5 C49.3,51.0593922 50.2518209,52.3408974 51.468864,52.4862668 L51.7,52.5 C50.3745166,52.5 49.3,53.8431458 49.3,55.5 C49.3,53.8431458 48.2254834,52.5 46.9,52.5 C48.1475138,52.5 49.1727179,51.3102238 49.2890135,49.78892 L49.3,49.5 Z" id="Path" stroke="#000000"></path>
        <path d="M37.3142136,14.0857864 C36.579109,14.820891 36.5358676,15.9858642 37.1844892,16.7715415 L37.3142136,16.9142136 C36.533165,16.133165 35.266835,16.133165 34.4857864,16.9142136 C35.266835,16.133165 35.266835,14.866835 34.4857864,14.0857864 C35.220891,14.820891 36.3858642,14.8641324 37.1715415,14.2155108 L37.3142136,14.0857864 Z" id="Path" stroke="#000000"></path>
        <path d="M13.3142136,50.0857864 C12.579109,50.820891 12.5358676,51.9858642 13.1844892,52.7715415 L13.3142136,52.9142136 C12.533165,52.133165 11.266835,52.133165 10.4857864,52.9142136 C11.266835,52.133165 11.266835,50.866835 10.4857864,50.0857864 C11.220891,50.820891 12.3858642,50.8641324 13.1715415,50.2155108 L13.3142136,50.0857864 Z" id="Path" stroke="#000000"></path>
    </g>
</svg>