<?xml version="1.0" encoding="UTF-8"?>
<svg width="64px" height="64px" viewBox="0 0 64 64" version="1.1" xmlns="http://www.w3.org/2000/svg" xmlns:xlink="http://www.w3.org/1999/xlink">
    <title>Artboard</title>
    <g id="Artboard" stroke="none" stroke-width="1" fill="none" fill-rule="evenodd" stroke-linecap="round" stroke-linejoin="round">
        <path d="M41.3233198,22.3598501 C42.5177644,22.363308 43.5015635,23.6214292 43.6360121,25.2419763 L43.6477198,25.4305202 C43.7226168,27.6861968 45.2158978,28.4670079 47.4623794,28.7372887 L47.8665006,28.7798819 L48.0741714,28.7975719 L48.5002255,28.8264745 L48.9398861,28.847722 L49.3923409,28.8624923 L50.093235,28.8750789 L51.1171461,28.8794475 C52.0996064,28.8803362 52.9038231,29.639936 52.9749038,30.6033635 L52.9790902,30.7413917 L52.980011,39.9265761 C52.980011,42.0508911 51.2579032,43.7729886 49.1335883,43.7729886 L20.4637339,43.7736186 C20.4876404,43.6025077 20.5,43.4276972 20.5,43.25 L20.4997339,30.2588501 L38.4315098,22.9666903 C39.2690976,22.6355523 40.4739069,22.3606309 41.131433,22.3606309 L41.3233198,22.3598501 Z" id="Path" stroke="#000000" stroke-width="1.5"></path>
        <line x1="34.6881417" y1="24.77" x2="36.1609546" y2="28.03" id="Line" stroke="#000000" stroke-width="1.5"></line>
        <line x1="31.1629098" y1="26.2173451" x2="32.6357228" y2="29.4826549" id="Line" stroke="#000000" stroke-width="1.5"></line>
        <line x1="27.6376779" y1="27.67" x2="29.1104909" y2="30.93" id="Line" stroke="#000000" stroke-width="1.5"></line>
        <line x1="20.5" y1="39.5" x2="52.5" y2="39.5" id="Line-2" stroke="#000000" stroke-width="1.5"></line>
        <path d="M14.9444444,10 C15.7605986,10 16.4299487,10.808126 16.4948434,11.8359689 L16.5,12 L16.5,17 L9.5,17 L9.5,12 C9.5,10.950659 10.1285425,10.0900659 10.9279758,10.0066299 L11.0555556,10 L14.9444444,10 Z" id="Path" stroke="#000000" stroke-width="1.5"></path>
        <path d="M16.75,17 L9.25,17 C7.17893219,17 5.5,18.6789322 5.5,20.75 L5.5,43.25 C5.5,45.3210678 7.17893219,47 9.25,47 L16.75,47 C18.8210678,47 20.5,45.3210678 20.5,43.25 L20.5,20.75 C20.5,18.6789322 18.8210678,17 16.75,17 Z" id="Rectangle" stroke="#000000" stroke-width="1.5"></path>
        <line x1="19.5" y1="13.5" x2="36.5" y2="13.5" id="Line-3" stroke="#000000" stroke-dasharray="3,3"></line>
        <line x1="25.0126127" y1="10.4071712" x2="34.4095389" y2="6.98696979" id="Line-3" stroke="#000000" stroke-dasharray="3,3"></line>
        <line x1="25.0126127" y1="16.59" x2="34.4095389" y2="20.01" id="Line-3" stroke="#000000" stroke-dasharray="3,3"></line>
        <path d="M55.3142136,20.0857864 C54.579109,20.820891 54.5358676,21.9858642 55.1844892,22.7715415 L55.3142136,22.9142136 C54.533165,22.133165 53.266835,22.133165 52.4857864,22.9142136 C53.266835,22.133165 53.266835,20.866835 52.4857864,20.0857864 C53.220891,20.820891 54.3858642,20.8641324 55.1715415,20.2155108 L55.3142136,20.0857864 Z" id="Path" stroke="#000000"></path>
        <line x1="44.5" y1="12.5" x2="46.5" y2="14.5" id="Line-4" stroke="#000000"></line>
        <line x1="44.5" y1="14.5" x2="46.5" y2="12.5" id="Line-5" stroke="#000000"></line>
        <line x1="55.5" y1="47.5" x2="57.5" y2="49.5" id="Line-4" stroke="#000000"></line>
        <line x1="55.5" y1="49.5" x2="57.5" y2="47.5" id="Line-5" stroke="#000000"></line>
        <path d="M30.3142136,48.0857864 C29.579109,48.820891 29.5358676,49.9858642 30.1844892,50.7715415 L30.3142136,50.9142136 C29.533165,50.133165 28.266835,50.133165 27.4857864,50.9142136 C28.266835,50.133165 28.266835,48.866835 27.4857864,48.0857864 C28.220891,48.820891 29.3858642,48.8641324 30.1715415,48.2155108 L30.3142136,48.0857864 Z" id="Path" stroke="#000000"></path>
        <path d="M42.3,49.5 C42.3,51.0593922 43.2518209,52.3408974 44.468864,52.4862668 L44.7,52.5 C43.3745166,52.5 42.3,53.8431458 42.3,55.5 C42.3,53.8431458 41.2254834,52.5 39.9,52.5 C41.1475138,52.5 42.1727179,51.3102238 42.2890135,49.78892 L42.3,49.5 Z" id="Path" stroke="#000000"></path>
    </g>
</svg>